<svg width="800" height="800" viewBox="0 0 800 800" fill="none" xmlns="http://www.w3.org/2000/svg">
<path d="M83.2501 396.75C83.2501 353 22.0001 254.25 50.7501 224.25C82.0001 191.75 154.5 330.5 190.75 330.5C234.5 330.5 260.75 276.75 282 254.25C299.5 236.75 249.5 166.75 272 161.75C365.75 139.25 378.25 194.25 429.5 180.5C469.5 170.5 510.75 164.25 550.75 164.25C700.75 164.25 729.5 271.75 755.75 371.75C760.75 386.75 609.5 515.5 609.5 515.5C609.5 515.5 724.5 450.5 722 465.5C703.25 548 625.75 600.5 538.25 620.5C513.25 626.75 487 629.25 462 629.25C302 629.25 277 505.5 190.75 490.5C138.25 481.75 82.0001 583 52.0001 551.75C19.5001 519.25 83.2501 448 83.2501 396.75Z" fill="#A69BE5"/>
<path d="M215.75 634.25C230.75 649.25 260.75 668 293.25 634.25C325.75 600.5 360.75 540.5 345.75 525.5C330.75 510.5 273.25 546.75 240.75 580.5C208.25 613 200.75 619.25 215.75 634.25Z" fill="#EC8EFF"/>
<path d="M399.5 359.25C384.312 359.25 372 341.341 372 319.25C372 297.159 384.312 279.25 399.5 279.25C414.688 279.25 427 297.159 427 319.25C427 341.341 414.688 359.25 399.5 359.25Z" fill="#757575"/>
<path d="M347 399.25C338.716 399.25 332 385.259 332 368C332 350.741 338.716 336.75 347 336.75C355.284 336.75 362 350.741 362 368C362 385.259 355.284 399.25 347 399.25Z" fill="#757575"/>
<path d="M318.25 349.25C314.108 349.25 310.75 339.736 310.75 328C310.75 316.264 314.108 306.75 318.25 306.75C322.392 306.75 325.75 316.264 325.75 328C325.75 339.736 322.392 349.25 318.25 349.25Z" fill="#757575"/>
<path d="M583.25 451.75C534.235 451.75 494.5 410.336 494.5 359.25C494.5 308.164 534.235 266.75 583.25 266.75C632.265 266.75 672 308.164 672 359.25C672 410.336 632.265 451.75 583.25 451.75Z" fill="#FCFCFA"/>
<path d="M583.25 423C549.423 423 522 394.458 522 359.25C522 324.042 549.423 295.5 583.25 295.5C617.077 295.5 644.5 324.042 644.5 359.25C644.5 394.458 617.077 423 583.25 423Z" fill="#29251C"/>
</svg>
